<svg xmlns="http://www.w3.org/2000/svg" viewBox="0 0 1446 666">
  <g id="Front" style="isolation: isolate">
    <path d="M943,377c-8.51-23.12-36.26-22.84-59-32-1.63-.66-7.39-1.28-9-2-20.74-9.24-41.63-13.8-60-25-39.21-23.92-85.8-39-135-53-18.31-5.21-37.32-5.72-58-9H591c-23.53,0-43.12,3.42-62,8l-13,1c-7.14,1.76-24.58,4.32-33.62,2.85-11.77-1.93-23.17-6.5-33.38-9.85l-38-9c-14.27-3.8-33.3-2.32-46-8-3.67-1.64-7.83-5.67-11-8-12.09-8.87-24.62-18.82-37-27-32.54-21.5-68.95-39.47-108-54-13.63-5.07-28.53-8.58-42-12-7.83-2-21.32-1.57-27-3-6.3-.07-12,0-18,0-20.77,0-36,1.83-55.73.75C40.06,136.32,26.93,127,2,142c-2.7,11.21-.75,37.06,5,46,4.54,7.05,13.94,11,19.7,17.34,7.13,7.87,11.69,17.32,14.59,29.07C48.34,263.07,54.1,292.51,61,320c2.69,10.72,4,19.31,7,29,21,68.21,61.74,120,119,156a212.82,212.82,0,0,0,45,21c26.42,8.52,58.62,2.32,77-9,6.16-3.79,13.39-9.79,19-14,30.55-22.92,45.33-64.31,57-106,3.83-13.7,4.38-29.53,6-44-.33-14.33-.67-26.67-1-41,21.24,1.45,52.63,12.06,62,25,17.19,23.73-9.24,32.42-4,54,14.78,60.84,39.74,111.22,72,157,28.09,39.87,74.27,79.75,124,98,72.57,26.64,152.83,10.22,189-38,22.4-29.87,35.37-64.55,47-106,7-25.08,4.85-50.81,16-71,4.3-1.11,11.21-2.78,17-2,2.08.28,6.47,1.87,10,1,7-2.67,13-6.33,20-9,1-4.81,1-11.75,1-18C944,394.74,945.44,383.63,943,377ZM277,507c-6.33,2.67-17.33,2.71-25,2-24.89-2.3-41.66-11.46-58-20C123.72,452.26,97.15,377.22,76,291c-1.86-8.7-2-17.33-2-26,0-25.69,2.46-47.7,11-65,4.68-9.48,10.63-18.25,18-24,8.43-4.5,13.48-3.12,18-6,42.16-.09,66.73,12.64,95,25,56.18,24.56,90.09,62.25,110,123C350.55,392.93,334.88,482.57,277,507ZM783,620c-34.36,21.64-102.39,23.62-138,6-43.42-21.48-78.25-51.9-102-93-3.69-6.39-8.43-16.41-12-23-10.46-19.31-16.06-38.22-23-60-2.92-9.16-3.84-16.23-5-26-2.72-22.79-.81-66.09,6-84,2.49-6.54,4.66-15.57,8-22,2.37-4.56,5-7.85,8-12,4.62-6.43,22.75-13.27,32.72-15.39,4.69-1,14.21,0,19.28.39,125.87.6,195.06,37.05,243,116C861.75,475.76,837.85,585.46,783,620Z" fill="none" fill-rule="evenodd"/>
  </g>
  <g id="Lentiles" opacity="0.58" style="isolation: isolate">
    <path d="M114,171c8.16-2.14,17.77-1.87,26-1,2.33-.33,5.67,1.33,8,1,11.22,2.28,24.87,3.85,36,9,3.65,1.69,7.11,2.78,13,6a50.48,50.48,0,0,0,8.73,4.37c2.44.89,31.26,16.68,33.27,15.63a116.77,116.77,0,0,1,25,18c1.9,1.84,5.14,4.24,7,6,4.38,4.13,7.71,6.74,12,11,2.33,1.67,3.67,4.33,6,6,3.79,4.59,6.25,9.38,10,14a64.48,64.48,0,0,1,4,6c-.33.67,1.33.33,1,1,7.22,12.1,11.93,18.45,16,29,2.83,7.33,4,12.16,6,19,8,27.32,17,81.05,7,118-7.54,28-21.88,50.41-43,65-8.82,6.09-34.49,11.33-50,7-33.53-9.35-58.08-18.65-79-40-6.23-6.36-11.91-12.51-18-19a87.1,87.1,0,0,1-8-9,356,356,0,0,1-32-55c-10.17-21.76-17.24-45.1-23-70-6-25.8-9.44-74.44,0-101,3.64-10.25,8.67-22.22,16-29C100.41,178.92,106.5,172.64,114,171Z" fill="none" fill-rule="evenodd"/>
    <path d="M585,289c9.64.46,22.66.09,31,2,4.33-.33,8.58.05,16,1,7.48,2.55,7.38,1.06,12,2,2-.33,5,1.33,7,1,5.06,1.53,12.54,2.54,18,4,2.67,0,8.33,2,11,2,37.41,14.05,71.92,23.6,98,47,11.92,10.7,21.38,22.88,31,36,2.68,3.65,6.57,9.17,9,13,6.52,10.3,11,23.06,15,32,7.79,17.58,11,38.21,11,63,0,5.67-1,11.33-1,17-6.48,29.93-7.26,40.58-24,72-2.53,4.75-3.4,8.83-7,13-5.29,6.12-11.38,12.17-17,18-6.19,6.41-15.74,12.82-24,17-34,17.18-81.07,13.73-115,1-78.85-29.57-115.1-91-146.13-169.76C497.71,429.36,498,362.75,512,332a60,60,0,0,1,5-9v-6c3.09-.41,2.33-4,3-4,1.77-2.7,3.07-3.45,5-6,7.21-9.52,20.35-14,30-16C558.43,291.13,575.9,289.07,585,289Z" fill="none" fill-rule="evenodd"/>
  </g>
</svg>
