<svg xmlns="http://www.w3.org/2000/svg" xmlns:xlink="http://www.w3.org/1999/xlink" viewBox="0 0 1451 659">
  <g id="Front" style="isolation: isolate">
    <path d="M390,312c.33,14.33.67,26.67,1,41-1.62,14.47-2.17,30.3-6,44-11.67,41.69-26.45,83.08-57,106-5.61,4.21-12.84,10.21-19,14-18.38,11.32-50.58,17.52-77,9a212.82,212.82,0,0,1-45-21c-57.26-36-97.95-87.79-119-156-3-9.69-4.31-18.28-7-29-6.9-27.49-12.66-56.93-19.71-85.59-2.9-11.75-7.46-21.2-14.59-29.07C20.94,199,11.54,195.05,7,188c-5.75-8.94-7.7-34.79-5-46,24.93-15,38.06-5.68,64.27-4.25,19.73,1.08,35-.75,55.73-.75,6,0,11.7-.07,18,0,5.68,1.43,19.17,1,27,3,13.47,3.42,28.37,6.93,42,12,39.05,14.53,75.46,32.5,108,54,12.38,8.18,24.91,18.13,37,27,3.17,2.33,7.33,6.36,11,8,12.7,5.68,31.73,4.2,46,8l38,9c10.21,3.35,21.61,7.92,33.38,9.85,9,1.47,26.48-1.09,33.62-2.85l13-1c18.88-4.58,38.47-8,62-8h31c20.68,3.28,39.69,3.79,58,9,49.2,14,95.79,29.08,135,53,18.37,11.2,39.26,15.76,60,25,1.61.72,7.37,1.34,9,2,22.74,9.16,50.49,8.88,59,32,2.44,6.63,1,17.74,1,26,0,6.25,0,13.19-1,18-7,2.67-13,6.33-20,9-3.53.87-7.92-.72-10-1-5.79-.78-12.7.89-17,2-11.15,20.19-9,45.92-16,71-11.63,41.45-24.6,76.13-47,106-36.17,48.22-116.43,64.64-189,38-49.73-18.25-95.91-58.13-124-98-32.26-45.78-57.22-96.16-72-157-5.24-21.58,21.19-30.27,4-54C442.63,324.06,411.24,313.45,390,312Z" fill="none" fill-rule="evenodd"/>
    <path d="M121,170c-4.52,2.88-9.57,1.5-18,6-7.37,5.75-13.32,14.52-18,24-8.54,17.3-11,39.31-11,65,0,8.67.14,17.3,2,26,21.15,86.22,47.72,161.26,118,198,16.34,8.54,33.11,17.7,58,20,7.67.71,18.67.67,25-2,57.88-24.43,73.55-114.07,49-189-19.91-60.75-53.82-98.44-110-123C187.73,182.64,163.16,169.91,121,170Z" fill="none" fill-rule="evenodd"/>
    <path d="M577,291c-5.07-.4-14.59-1.39-19.28-.39-10,2.12-28.1,9-32.72,15.39-3,4.15-5.63,7.44-8,12-3.34,6.43-5.51,15.46-8,22-6.81,17.91-8.72,61.21-6,84,1.16,9.77,2.08,16.84,5,26,6.94,21.78,12.54,40.69,23,60,3.57,6.59,8.31,16.61,12,23,23.75,41.1,58.58,71.52,102,93,35.61,17.62,103.64,15.64,138-6,54.85-34.54,78.75-144.24,37-213C772.06,328.05,702.87,291.6,577,291Z" fill="none" fill-rule="evenodd"/>
  </g>
  <g id="Lentiles" opacity="0.58" style="isolation: isolate">
    <path d="M114,171c8.16-2.14,17.77-1.87,26-1,2.33-.33,5.67,1.33,8,1,11.22,2.28,24.87,3.85,36,9,3.65,1.69,7.11,2.78,13,6a50.48,50.48,0,0,0,8.73,4.37c2.44.89,31.26,16.68,33.27,15.63a116.77,116.77,0,0,1,25,18c1.9,1.84,5.14,4.24,7,6,4.38,4.13,7.71,6.74,12,11,2.33,1.67,3.67,4.33,6,6,3.79,4.59,6.25,9.38,10,14a64.48,64.48,0,0,1,4,6c-.33.67,1.33.33,1,1,7.22,12.1,11.93,18.45,16,29,2.83,7.33,4,12.16,6,19,8,27.32,17,81.05,7,118-7.54,28-21.88,50.41-43,65-8.82,6.09-34.49,11.33-50,7-33.53-9.35-58.08-18.65-79-40-6.23-6.36-11.91-12.51-18-19a87.1,87.1,0,0,1-8-9,356,356,0,0,1-32-55c-10.17-21.76-17.24-45.1-23-70-6-25.8-9.44-74.44,0-101,3.64-10.25,8.67-22.22,16-29C100.41,178.92,106.5,172.64,114,171Z" fill="none" fill-rule="evenodd"/>
    <path d="M585,289c9.64.46,22.66.09,31,2,4.33-.33,8.58.05,16,1,7.48,2.55,7.38,1.06,12,2,2-.33,5,1.33,7,1,5.06,1.53,12.54,2.54,18,4,2.67,0,8.33,2,11,2,37.41,14.05,71.92,23.6,98,47,11.92,10.7,21.38,22.88,31,36,2.68,3.65,6.57,9.17,9,13,6.52,10.3,11,23.06,15,32,7.79,17.58,11,38.21,11,63,0,5.67-1,11.33-1,17-6.48,29.93-7.26,40.58-24,72-2.53,4.75-3.4,8.83-7,13-5.29,6.12-11.38,12.17-17,18-6.19,6.41-15.74,12.82-24,17-34,17.18-81.07,13.73-115,1-78.85-29.57-115.1-91-146.13-169.76C497.71,429.36,498,362.75,512,332a60,60,0,0,1,5-9v-6c3.09-.41,2.33-4,3-4,1.77-2.7,3.07-3.45,5-6,7.21-9.52,20.35-14,30-16C558.43,291.13,575.9,289.07,585,289Z" fill="none" fill-rule="evenodd"/>
  </g>
  <g id="Temples" style="isolation: isolate">
    <path d="M517,2c51.65-.89,97.21,3,129.21,19.4C681.93,39.7,711.65,69.94,743,93c17.27,12.7,32.49,28.68,49.5,42C801.34,142,807,145.25,807,161c-2.5,2.62-3.93,9.15-8,11-14.11,6.42-34.67,8.21-46,0-7.4-5.36-13.67-17.43-19-25-9.2-13.06-21.31-24.17-31-37a86,86,0,0,0-16-16c-5-5-11-9-16-14-21.8-16.36-45.48-32.68-74-42-10.94-3.57-21.89-4.7-34-6-12.34-1.32-29.71.35-40,1-1,.67-11.26.19-17,2-20.75,2.7-45.37,7-65,13-13.18,4-22.43,5.74-37,10-32.06,9.38-65.67,20.56-96,32-11.23,4.24-20.21,7.39-32,12-16.39,6.41-32.8,14.91-50,22-2.05.84-6.72,2.12-9,3-2.33.33-4.67,2.67-7,3-9.68,4.6-21.18,13.52-32,13-14.13-.68-29.82-3.92-38-5-10.13-1.34-33.46-.28-40,0-8.5.37-19.61,2.7-26,3-14,.65-26.55-6.47-36-6v-2c11.22-3.35,22.37-6.77,32-10s15.45-4.92,26-8c5.35-1.56,11.7-3.22,17-5,6.31-2.11,10.94-3,18-5,5.6-1.62,11.39-3.16,17-5,25.73-8.43,52.53-11.71,78-20,53.88-17.54,112.71-34.67,167-52,28.26-9,53.11-13.52,86-20C488.12,6.2,496.4,5.35,517,2Z" fill="none" fill-rule="evenodd"/>
    <path d="M1348,227c15-2,30.91-1.16,41,4,17,8.7,20.29,31.57,28,50,4.7,11.24,14.11,18.56,21.48,27,6,6.85,11,40.37-6.48,47-7.83,5.66-28.13,1-34-3-14.08-9.58-10.44-28.46-16-47-2.18-7.27-5.4-17.16-8-24-4.24-11.19-.77-20.05-17-20-6,1-13.79,2.76-22,5-8,2.18-16.15,5-25,8-31.79,10.81-65.73,22.48-96,35-6.9,2.85-9.46,3.08-16,6-28.68,12.82-59.27,23.56-87,38-43,22.41-86.86,43.45-137,59-14.72,4.57-31.15,13.57-47,17-3.7-1.25-7.28-47.87-2-56,5.34-14.68,16.17-15.26,32-20,16.27-4.87,34-11,50-16,9.74-3,29.71-9.42,39-12,25.52-7.1,43.55-11.71,71-18,6-2.67,12-3.33,18-6,42.64-14.45,81.55-29.76,121.22-45.53,7.06-2.81,13.85-4.16,20.78-7.47,12.27-5.87,29-9.63,42-14A241.31,241.31,0,0,1,1348,227Z" fill="none" fill-rule="evenodd"/>
    <path d="M954,405c7.89-.64,8.42-9.88,20-7,2.59-5.15,4.06-8.32,4-17h-2c-3.8,3.14-6.3,5.9-16,5C956.21,391.84,953.91,394.38,954,405Z" fill="none" fill-rule="evenodd"/>
  </g>
  <g id="Shadow_Image" data-name="Shadow Image" opacity="0.25">
    <image id="Shadow_Image-2" data-name="Shadow Image" width="1446" height="655" transform="translate(2 2)" xlink:href="glasses1.png"/>
  </g>
</svg>
